<svg xmlns="http://www.w3.org/2000/svg" viewBox="0 0 595.3 841.9"><circle cx="229" cy="295.1" r="10.4"/><path d="M301.7 430c0-22.9-18.6-41.5-41.5-41.5s-41.5 18.6-41.5 41.5c0 5.7 4.7 10.4 10.4 10.4s10.4-4.7 10.4-10.4c0-11.4 9.3-20.8 20.8-20.8 11.4 0 20.8 9.3 20.8 20.8 0 11.4-9.3 20.8-20.8 20.8-5.7 0-10.4 4.7-10.4 10.4s4.7 10.4 10.4 10.4c11.4 0 20.8 9.3 20.8 20.8 0 11.4-9.3 20.8-20.8 20.8-11.4 0-20.8-9.3-20.8-20.8 0-5.7-4.7-10.4-10.4-10.4s-10.4 4.7-10.4 10.4c0 22.9 18.6 41.5 41.5 41.5s41.5-18.6 41.5-41.5c0-12.4-5.5-23.5-14.1-31.2 8.6-7.7 14.1-18.8 14.1-31.2z"/><circle cx="360.5" cy="295.1" r="10.4"/><path d="M364.5 389.3c-3.9-1.6-8.4-.7-11.3 2.3L322 422.7c-4 4-4 10.6 0 14.7 4 4 10.6 4 14.7 0l13.4-13.4v99.5c0 5.7 4.7 10.4 10.4 10.4s10.4-4.7 10.4-10.4V398.9c0-4.2-2.5-8-6.4-9.6z"/><path d="M297.8 144.4c-153 0-276.7 123.7-276.7 276.7s123.7 276.7 276.7 276.7 276.7-123.7 276.7-276.7-123.6-276.7-276.7-276.7zM156.4 284.7c0-11.5 9.3-20.8 20.8-20.8h235.3c11.5 0 20.8 9.3 20.8 20.8v41.5H156.4v-41.5zm276.5 290.6H156.7c-12.8 0-22.5-11.5-20.5-24.1L153 450.8l-15.8-79c-2.6-12.9 7.3-24.9 20.3-24.9H432c13.1 0 22.9 12 20.3 24.9l-15.8 79 16.8 100.4c2.1 12.6-7.6 24.1-20.4 24.1z"/></svg>