<svg xmlns="http://www.w3.org/2000/svg" viewBox="0 0 595.3 841.9"><path d="M297.8 476.9c31.2 0 55.7-24.6 55.7-55.7 0-11.5-3.3-23-9.9-32.8-9.9-14.8-26.2-23-45.9-23-18 0-34.4 9.9-45.9 23-6.6 9.9-9.9 19.7-9.9 32.8.2 31.1 24.8 55.7 55.9 55.7zm95.1-122.3c14.8 0 26.5-11.7 26.5-26.5 0-5.5-1.6-10.9-4.7-15.6-4.7-7-12.5-10.9-21.8-10.9-8.6 0-16.3 4.7-21.8 10.9-3.1 4.7-4.7 9.4-4.7 15.6.1 14.8 11.8 26.5 26.5 26.5z"/><path d="M297.8 142.6c-154 0-278.6 124.5-278.6 278.6s124.5 278.6 278.6 278.6 278.6-124.5 278.6-278.6-124.5-278.6-278.6-278.6zm159 245.8v129.4c0 34.4-27.9 60.6-60.6 60.6h-195c-34.4 0-60.6-27.9-60.6-60.6V324.5c0-34.4 27.9-60.6 60.6-60.6h195c34.4 0 60.6 27.9 60.6 60.6v63.9z"/><path d="M384.7 421.1c0 47.5-39.3 86.9-86.9 86.9-47.5 0-86.9-39.3-86.9-86.9 0-11.5 1.7-23 6.6-32.8H170v129.4c0 16.4 13.1 31.2 31.2 31.2h195c16.4 0 31.2-13.1 31.2-31.2V388.4h-47.5c1.5 9.8 4.8 21.3 4.8 32.7z"/></svg>