<svg xmlns="http://www.w3.org/2000/svg" viewBox="0 0 15000 1080"><path d="M7505 653c60.4 0 108-47.6 108-108 0-22.2-6.4-44.5-19.1-63.5-19.1-28.6-50.8-44.5-88.9-44.5-34.9 0-66.7 19.1-88.9 44.5-12.7 19.1-19.1 38.1-19.1 63.5 0 60.4 47.6 108 108 108zm235.1-241.4V309.9h-101.7v101.7z"/><path d="M7505 5c-298.6 0-540 241.4-540 540s241.4 540 540 540 540-241.4 540-540S7803.6 5 7505 5zm308.1 476.5v250.9c0 66.7-54 117.5-117.5 117.5h-378c-66.7 0-117.5-54-117.5-117.5V357.6c0-66.7 54-117.5 117.5-117.5h378c66.7 0 117.5 54 117.5 117.5v123.9z"/><path d="M7673.4 545c0 92.1-76.2 168.4-168.4 168.4-92.1 0-168.4-76.2-168.4-168.4 0-22.2 3.2-44.5 12.7-63.5h-92.1v250.9c0 31.8 25.4 60.4 60.4 60.4h378c31.8 0 60.4-25.4 60.4-60.4V481.5h-92.1c3.1 19 9.5 41.3 9.5 63.5z"/></svg>