<svg xmlns="http://www.w3.org/2000/svg" viewBox="0 0 64 87.3"><path fill-rule="evenodd" clip-rule="evenodd" fill="#A64746" d="M59.8 21.6C53.6 29.3 47.5 37.1 41 44.8c-.3-.7-.6-1.2-.9-1.7L37.4 38c-1-2-2.1-3.9-3.1-5.9-.1-.2-.3-.5-.5-.7-.2-.3-.4-.2-.5 0l-1.2 2.1c-.1.2-.3.4-.5.6-.6 1-1.2 1.9-1.8 2.9-1 1.7-2 3.5-3 5.3-.5 1-1.1 1.9-1.6 2.9-.1.2-.2.3-.3.7-6.5-6.9-13-13.8-19.5-20.8-.3 1.7-.1 3.3.2 4.9.1.3.1.6.1.8 0 .7.5 1.1.9 1.5 2.6 2.7 5.3 5.4 8 8.1 1.7 1.7 3.5 3.5 5.3 5.2l3.5 3.5-1.5 3.3c-.1.2-.2.4-.3.7-.3.6-.6 1.3-.9 1.9-.7 1.3-1.3 2.6-2.1 3.9-1.3 2.3-2.7 4.6-4 7-2.2 3.8-4.3 7.6-6.5 11.4-1.3 2.3-2.7 4.6-4 6.9-.2.4-.6.2-.9.2-.8 0-1.6-.1-2.4-.2-.7-.1-.8-.2-.8-.7.1-1.7.1-3.4.2-5.1 0-.5.4-.9.7-1.3.8-1.3 1.7-2.6 2.5-4 .6-.9 1.1-1.9 1.6-2.9s1-2 1.6-3c1-1.7 1.8-3.5 3-5.1 1.5-2 2.7-4 4-6.1.6-1 1.1-2.1 1.7-3.1.5-.9.5-.6-.3-1.3-.4-.3-.5-.8-.9-1.1-1.1-1-2.1-2-3.1-3-1.4-1.3-2.8-2.6-4.1-4-1.5-1.4-2.9-2.8-4.4-4.2-.6-.6-1.3-1.2-2-1.7-.1-.1-.1-.2-.1-.3-.1-2-.1-3.9-.1-5.9 0-.8.2-1.6.2-2.5v-5.8c0-3.3.1-6.6.1-9.9V8.6c0-.8.1-1.6.2-2.4.1-1.5-.1-2.8 0-4.3V.4c1.7.1 3.7 0 5.3 0 .1.9.3 1.3.6 1.8.7 1.1 1.5 2.3 2.3 3.6 1.3 2 2.5 4.1 3.8 6.1 1.5 2.4 3 4.9 4.6 7.3.1.2.3.4.6.7.4-.5.8-.9 1.1-1.4l2.1-3.3c1-1.6 2-3.2 2.9-4.9.7-1.3 1.5-2.5 2.2-3.8 1-1.7 2-3.5 3-5.2.2-.4.4-.7.7-1 .2-.3.5-.3.9-.2h.3c.6-.1 1.2-.1 1.9-.1.1 0 .2.1.3.2.3.9.6 1.8.8 2.7.3.9.6 1.9.9 2.8.1.5.3.9.4 1.4.4 1.5.8 2.9 1.3 4.4.3 1.1.7 2.2 1 3.3 2.6-4.9 5.1-9.6 7.6-14.4h3.7c1 2.8 2 5.6 3 8.5h.1c.1-.3.1-.6.2-.8.5-1.8 1.1-3.6 1.6-5.4.2-.7.3-1.4.5-2 .3-.6.5-.7 1.2-.6.6 0 1.2.1 1.8.1.7 0 1.4 0 2.1-.1h3.5c.3 0 .5.1.5.4.1.6.3 1.1.1 1.7-.1.6-.1 1.3-.1 2 0 2.4.1 4.7.1 7.1 0 1.4.1 2.8.1 4.2v4.2c.2 1.3.2 2.7.2 4.1v3.1c0 1.3-.1 2.7-.2 4 0 2.3-.1 4.5.1 6.8.1 1.1-.6 1.8-1.1 2.6-1.9 2.9-4.8 5.7-6.7 8.5-1 1.5-2.1 2.8-3.1 4.3-.2.3-.2.5-.1.9 1 2.3 1.8 4.5 2.8 6.8 1.2 2.7 2.4 5.5 3.6 8.2.8 1.8 1.5 3.6 2.3 5.4.4.8.8 1.7 1.2 2.5.1.3.3.7.3 1.1v8.9c0 .4 0 .6-.5.6-1.1-.1-2.1-.2-3.2-.3-.3 0-.4-.2-.5-.4-.3-.9-.6-1.8-1-2.6-.9-2.2-1.9-4.3-2.8-6.5-1.2-2.7-2.4-5.3-3.5-8-.7-1.7-1.4-3.3-2.1-5L48 61.1c-.7-1.5-1.3-3-2-4.5-.7-1.7-1.5-3.4-2.2-5.1-.3-.8-.7-1.6-1.1-2.4-.2-.5-.2-.8.2-1.2l3.6-3.6 2.7-3 4.2-4.5c.9-1 2-1.9 2.9-2.9l3.3-3.6c.1-.1.1-.2.1-.3 0-.7.1-1.5.1-2.2 0-.8.1-1.5.1-2.3-.1-1.5-.1-2.7-.1-3.9z"/></svg>