<?xml version="1.0" encoding="utf-8"?>
<!-- Generator: Adobe Illustrator 18.0.0, SVG Export Plug-In . SVG Version: 6.00 Build 0)  -->
<!DOCTYPE svg PUBLIC "-//W3C//DTD SVG 1.1//EN" "http://www.w3.org/Graphics/SVG/1.1/DTD/svg11.dtd">
<svg version="1.1" id="Capa_1" xmlns="http://www.w3.org/2000/svg" xmlns:xlink="http://www.w3.org/1999/xlink" x="0px" y="0px"
	 viewBox="0 0 15000 1080" enable-background="new 0 0 15000 1080" xml:space="preserve">
<g>
	<g>
		<path d="M7505,5c-298.6,0-540,241.4-540,540s241.4,540,540,540c298.6,0,540-241.4,540-540S7803.6,5,7505,5z M7638.4,564.1h-88.9
			c0,139.8,0,314.5,0,314.5h-130.2c0,0,0-171.5,0-314.5h-60.4V452.9h60.4v-73.1c0-50.8,25.4-130.2,130.2-130.2h95.3v108
			c0,0-57.2,0-69.9,0c-12.7,0-28.6,6.4-28.6,28.6v63.5h98.5L7638.4,564.1z"/>
	</g>
</g>
</svg>
