<?xml version="1.0" encoding="utf-8"?>
<!-- Generator: Adobe Illustrator 18.0.0, SVG Export Plug-In . SVG Version: 6.00 Build 0)  -->
<!DOCTYPE svg PUBLIC "-//W3C//DTD SVG 1.1//EN" "http://www.w3.org/Graphics/SVG/1.1/DTD/svg11.dtd">
<svg version="1.1" id="Capa_1" xmlns="http://www.w3.org/2000/svg" xmlns:xlink="http://www.w3.org/1999/xlink" x="0px" y="0px"
	 viewBox="0 0 15000 1080" enable-background="new 0 0 15000 1080" xml:space="preserve">
<g>
	<g>
		<g>
			<path d="M7505,653c60.4,0,108-47.6,108-108c0-22.2-6.4-44.5-19.1-63.5c-19.1-28.6-50.8-44.5-88.9-44.5
				c-34.9,0-66.7,19.1-88.9,44.5c-12.7,19.1-19.1,38.1-19.1,63.5C7397,605.4,7444.6,653,7505,653z"/>
			<polygon points="7740.1,411.6 7740.1,322.6 7740.1,309.9 7727.4,309.9 7638.4,309.9 7638.4,411.6 			"/>
			<path d="M7505,5c-298.6,0-540,241.4-540,540s241.4,540,540,540c298.6,0,540-241.4,540-540S7803.6,5,7505,5z M7813.1,481.5v250.9
				c0,66.7-54,117.5-117.5,117.5h-378c-66.7,0-117.5-54-117.5-117.5V481.5V357.6c0-66.7,54-117.5,117.5-117.5h378
				c66.7,0,117.5,54,117.5,117.5V481.5z"/>
			<path d="M7673.4,545c0,92.1-76.2,168.4-168.4,168.4c-92.1,0-168.4-76.2-168.4-168.4c0-22.2,3.2-44.5,12.7-63.5h-92.1v250.9
				c0,31.8,25.4,60.4,60.4,60.4h378c31.8,0,60.4-25.4,60.4-60.4V481.5h-92.1C7667,500.5,7673.4,522.8,7673.4,545z"/>
		</g>
	</g>
</g>
</svg>
