<svg xmlns="http://www.w3.org/2000/svg" viewBox="0 0 15000 1080"><circle cx="7370.7" cy="299" r="20.3"/><path d="M7512.5 562.3c0-44.7-36.3-81-81-81s-81 36.3-81 81c0 11.2 9.1 20.3 20.3 20.3 11.2 0 20.3-9.1 20.3-20.3 0-22.3 18.2-40.5 40.5-40.5s40.5 18.2 40.5 40.5-18.2 40.5-40.5 40.5c-11.2 0-20.3 9.1-20.3 20.3 0 11.2 9.1 20.3 20.3 20.3 22.3 0 40.5 18.2 40.5 40.5s-18.2 40.5-40.5 40.5-40.5-18.2-40.5-40.5c0-11.2-9.1-20.3-20.3-20.3-11.2 0-20.3 9.1-20.3 20.3 0 44.7 36.3 81 81 81s81-36.3 81-81c0-24.2-10.7-45.9-27.5-60.8 16.8-14.9 27.5-36.7 27.5-60.8z"/><circle cx="7627.3" cy="299" r="20.3"/><path d="M7635 482.8c-7.6-3.1-16.3-1.4-22.1 4.4l-60.8 60.8c-7.9 7.9-7.9 20.7 0 28.6s20.7 7.9 28.6 0l26.2-26.2v194.1c0 11.2 9.1 20.3 20.3 20.3s20.3-9.1 20.3-20.3v-243c0-8.2-4.9-15.6-12.5-18.7z"/><path d="M7505 5c-298.6 0-540 241.4-540 540s241.4 540 540 540 540-241.4 540-540S7803.6 5 7505 5zm-276 273.7c0-22.4 18.1-40.5 40.5-40.5h459.1c22.4 0 40.5 18.1 40.5 40.5v81H7229v-81zm539.5 567.1h-539c-25 0-44-22.4-40-47.1l32.7-195.9-30.8-154.1c-5-25.1 14.2-48.5 39.7-48.5h535.7c25.5 0 44.7 23.4 39.7 48.5l-30.8 154.1 32.7 195.9c4.1 24.7-14.9 47.1-39.9 47.1z"/></svg>