<?xml version="1.0" encoding="utf-8"?>
<!-- Generator: Adobe Illustrator 18.0.0, SVG Export Plug-In . SVG Version: 6.00 Build 0)  -->
<!DOCTYPE svg PUBLIC "-//W3C//DTD SVG 1.1//EN" "http://www.w3.org/Graphics/SVG/1.1/DTD/svg11.dtd">
<svg version="1.1" id="Capa_1" xmlns="http://www.w3.org/2000/svg" xmlns:xlink="http://www.w3.org/1999/xlink" x="0px" y="0px"
	 viewBox="0 0 15000 1080" enable-background="new 0 0 15000 1080" xml:space="preserve">
<g>
	<circle cx="7370.7" cy="299" r="20.3"/>
	<path d="M7512.5,562.3c0-44.7-36.3-81-81-81c-44.7,0-81,36.3-81,81c0,11.2,9.1,20.3,20.3,20.3c11.2,0,20.3-9.1,20.3-20.3
		c0-22.3,18.2-40.5,40.5-40.5c22.3,0,40.5,18.2,40.5,40.5c0,22.3-18.2,40.5-40.5,40.5c-11.2,0-20.3,9.1-20.3,20.3
		c0,11.2,9.1,20.3,20.3,20.3c22.3,0,40.5,18.2,40.5,40.5c0,22.3-18.2,40.5-40.5,40.5c-22.3,0-40.5-18.2-40.5-40.5
		c0-11.2-9.1-20.3-20.3-20.3c-11.2,0-20.3,9.1-20.3,20.3c0,44.7,36.3,81,81,81c44.7,0,81-36.3,81-81c0-24.2-10.7-45.9-27.5-60.8
		C7501.8,608.2,7512.5,586.4,7512.5,562.3z"/>
	<circle cx="7627.3" cy="299" r="20.3"/>
	<path d="M7635,482.8c-7.6-3.1-16.3-1.4-22.1,4.4l-60.8,60.8c-7.9,7.9-7.9,20.7,0,28.6s20.7,7.9,28.6,0l26.2-26.2v194.1
		c0,11.2,9.1,20.3,20.3,20.3s20.3-9.1,20.3-20.3v-243C7647.5,493.3,7642.6,485.9,7635,482.8z"/>
	<path d="M7505,5c-298.6,0-540,241.4-540,540s241.4,540,540,540c298.6,0,540-241.4,540-540S7803.6,5,7505,5z M7229,278.7
		c0-22.4,18.1-40.5,40.5-40.5c52.8,0,407.6,0,459.1,0c22.4,0,40.5,18.1,40.5,40.5v81h-2.2h-535.7h-2.2V278.7z M7768.5,845.8h-539
		c-25,0-44-22.4-40-47.1l32.7-195.9l-30.8-154.1c-5-25.1,14.2-48.5,39.7-48.5h535.7c25.5,0,44.7,23.4,39.7,48.5l-30.8,154.1
		l32.7,195.9C7812.5,823.4,7793.5,845.8,7768.5,845.8z"/>
</g>
</svg>
