<?xml version="1.0" encoding="utf-8"?>
<!-- Generator: Adobe Illustrator 17.1.0, SVG Export Plug-In . SVG Version: 6.00 Build 0)  -->
<!DOCTYPE svg PUBLIC "-//W3C//DTD SVG 1.1//EN" "http://www.w3.org/Graphics/SVG/1.1/DTD/svg11.dtd">
<svg version="1.1" id="Capa_1" xmlns="http://www.w3.org/2000/svg" xmlns:xlink="http://www.w3.org/1999/xlink" x="0px" y="0px"
	 viewBox="0 0 595.3 841.9" enable-background="new 0 0 595.3 841.9" xml:space="preserve">
<g>
	<circle cx="229" cy="295.1" r="10.4"/>
	<path d="M301.7,430c0-22.9-18.6-41.5-41.5-41.5s-41.5,18.6-41.5,41.5c0,5.7,4.7,10.4,10.4,10.4c5.7,0,10.4-4.7,10.4-10.4
		c0-11.4,9.3-20.8,20.8-20.8c11.4,0,20.8,9.3,20.8,20.8c0,11.4-9.3,20.8-20.8,20.8c-5.7,0-10.4,4.7-10.4,10.4s4.7,10.4,10.4,10.4
		c11.4,0,20.8,9.3,20.8,20.8c0,11.4-9.3,20.8-20.8,20.8c-11.4,0-20.8-9.3-20.8-20.8c0-5.7-4.7-10.4-10.4-10.4
		c-5.7,0-10.4,4.7-10.4,10.4c0,22.9,18.6,41.5,41.5,41.5s41.5-18.6,41.5-41.5c0-12.4-5.5-23.5-14.1-31.2
		C296.2,453.5,301.7,442.4,301.7,430z"/>
	<circle cx="360.5" cy="295.1" r="10.4"/>
	<path d="M364.5,389.3c-3.9-1.6-8.4-0.7-11.3,2.3L322,422.7c-4,4-4,10.6,0,14.7c4,4,10.6,4,14.7,0l13.4-13.4v99.5
		c0,5.7,4.7,10.4,10.4,10.4s10.4-4.7,10.4-10.4V398.9C370.9,394.7,368.4,390.9,364.5,389.3z"/>
	<path d="M297.8,144.4c-153,0-276.7,123.7-276.7,276.7s123.7,276.7,276.7,276.7s276.7-123.7,276.7-276.7S450.9,144.4,297.8,144.4z
		 M156.4,284.7c0-11.5,9.3-20.8,20.8-20.8c27.1,0,208.9,0,235.3,0c11.5,0,20.8,9.3,20.8,20.8v41.5H432H157.5h-1.1L156.4,284.7
		L156.4,284.7z M432.9,575.3H156.7c-12.8,0-22.5-11.5-20.5-24.1l16.8-100.4l-15.8-79c-2.6-12.9,7.3-24.9,20.3-24.9H432
		c13.1,0,22.9,12,20.3,24.9l-15.8,79l16.8,100.4C455.4,563.8,445.7,575.3,432.9,575.3z"/>
</g>
</svg>
