<?xml version="1.0" encoding="utf-8"?>
<!-- Generator: Adobe Illustrator 17.1.0, SVG Export Plug-In . SVG Version: 6.00 Build 0)  -->
<!DOCTYPE svg PUBLIC "-//W3C//DTD SVG 1.1//EN" "http://www.w3.org/Graphics/SVG/1.1/DTD/svg11.dtd">
<svg version="1.1" id="Capa_1" xmlns="http://www.w3.org/2000/svg" xmlns:xlink="http://www.w3.org/1999/xlink" x="0px" y="0px"
	 viewBox="0 0 595.3 841.9" enable-background="new 0 0 595.3 841.9" xml:space="preserve">
<g>
	<g>
		<path d="M297.8,143.7c-153.4,0-277.4,124-277.4,277.4s124,277.4,277.4,277.4s277.4-124,277.4-277.4S451.2,143.7,297.8,143.7z
			 M366.4,431h-45.7c0,71.8,0,161.6,0,161.6h-66.9c0,0,0-88.1,0-161.6h-31v-57.1h31v-37.6c0-26.1,13-66.9,66.9-66.9h49v55.5
			c0,0-29.4,0-35.9,0c-6.5,0-14.7,3.3-14.7,14.7v32.6h50.6L366.4,431z"/>
	</g>
</g>
</svg>
