<?xml version="1.0" encoding="utf-8"?>
<!-- Generator: Adobe Illustrator 17.1.0, SVG Export Plug-In . SVG Version: 6.00 Build 0)  -->
<!DOCTYPE svg PUBLIC "-//W3C//DTD SVG 1.1//EN" "http://www.w3.org/Graphics/SVG/1.1/DTD/svg11.dtd">
<svg version="1.1" id="Capa_1" xmlns="http://www.w3.org/2000/svg" xmlns:xlink="http://www.w3.org/1999/xlink" x="0px" y="0px"
	 viewBox="0 0 595.3 841.9" enable-background="new 0 0 595.3 841.9" xml:space="preserve">
<g>
	<g>
		<g>
			<path d="M297.8,476.9c31.2,0,55.7-24.6,55.7-55.7c0-11.5-3.3-23-9.9-32.8c-9.9-14.8-26.2-23-45.9-23c-18,0-34.4,9.9-45.9,23
				c-6.6,9.9-9.9,19.7-9.9,32.8C242.1,452.3,266.7,476.9,297.8,476.9z"/>
			<polygon points="419.1,352.3 419.1,306.4 419.1,299.9 412.6,299.9 366.7,299.9 366.7,352.3 			"/>
			<path d="M297.8,142.6c-154,0-278.6,124.5-278.6,278.6s124.5,278.6,278.6,278.6s278.6-124.5,278.6-278.6S451.9,142.6,297.8,142.6z
				 M456.8,388.4v129.4c0,34.4-27.9,60.6-60.6,60.6h-195c-34.4,0-60.6-27.9-60.6-60.6V388.4v-63.9c0-34.4,27.9-60.6,60.6-60.6h195
				c34.4,0,60.6,27.9,60.6,60.6V388.4z"/>
			<path d="M384.7,421.1c0,47.5-39.3,86.9-86.9,86.9c-47.5,0-86.9-39.3-86.9-86.9c0-11.5,1.7-23,6.6-32.8H170v129.4
				c0,16.4,13.1,31.2,31.2,31.2h195c16.4,0,31.2-13.1,31.2-31.2V388.4h-47.5C381.4,398.2,384.7,409.7,384.7,421.1z"/>
		</g>
	</g>
</g>
</svg>
