<?xml version="1.0" encoding="utf-8"?>
<!-- Generator: Adobe Illustrator 18.0.0, SVG Export Plug-In . SVG Version: 6.00 Build 0)  -->
<!DOCTYPE svg PUBLIC "-//W3C//DTD SVG 1.1//EN" "http://www.w3.org/Graphics/SVG/1.1/DTD/svg11.dtd">
<svg version="1.1" id="Capa_1" xmlns="http://www.w3.org/2000/svg" xmlns:xlink="http://www.w3.org/1999/xlink" x="0px" y="0px"
	 viewBox="0 0 64 87.3" enable-background="new 0 0 64 87.3" xml:space="preserve">
<g id="vOn04d_4_">
	<g>
		<g>
			<path fill-rule="evenodd" clip-rule="evenodd" fill="#A64746" d="M59.8,21.6C53.6,29.3,47.5,37.1,41,44.8
				c-0.3-0.7-0.6-1.2-0.9-1.7c-0.9-1.7-1.8-3.4-2.7-5.1c-1-2-2.1-3.9-3.1-5.9c-0.1-0.2-0.3-0.5-0.5-0.7c-0.2-0.3-0.4-0.2-0.5,0
				c-0.4,0.7-0.8,1.4-1.2,2.1c-0.1,0.2-0.3,0.4-0.5,0.6C31,35.1,30.4,36,29.8,37c-1,1.7-2,3.5-3,5.3c-0.5,1-1.1,1.9-1.6,2.9
				c-0.1,0.2-0.2,0.3-0.3,0.7c-6.5-6.9-13-13.8-19.5-20.8c-0.3,1.7-0.1,3.3,0.2,4.9c0.1,0.3,0.1,0.6,0.1,0.8c0,0.7,0.5,1.1,0.9,1.5
				c2.6,2.7,5.3,5.4,8,8.1c1.7,1.7,3.5,3.5,5.3,5.2c1.2,1.2,2.4,2.4,3.5,3.5c-0.5,1.1-1,2.2-1.5,3.3c-0.1,0.2-0.2,0.4-0.3,0.7
				c-0.3,0.6-0.6,1.3-0.9,1.9c-0.7,1.3-1.3,2.6-2.1,3.9c-1.3,2.3-2.7,4.6-4,7c-2.2,3.8-4.3,7.6-6.5,11.4c-1.3,2.3-2.7,4.6-4,6.9
				c-0.2,0.4-0.6,0.2-0.9,0.2c-0.8,0-1.6-0.1-2.4-0.2C0.1,84.1,0,84,0,83.5c0.1-1.7,0.1-3.4,0.2-5.1c0-0.5,0.4-0.9,0.7-1.3
				c0.8-1.3,1.7-2.6,2.5-4C4,72.2,4.5,71.2,5,70.2c0.5-1,1-2,1.6-3c1-1.7,1.8-3.5,3-5.1c1.5-2,2.7-4,4-6.1c0.6-1,1.1-2.1,1.7-3.1
				c0.5-0.9,0.5-0.6-0.3-1.3c-0.4-0.3-0.5-0.8-0.9-1.1C13,49.5,12,48.5,11,47.5c-1.4-1.3-2.8-2.6-4.1-4c-1.5-1.4-2.9-2.8-4.4-4.2
				c-0.6-0.6-1.3-1.2-2-1.7c-0.1-0.1-0.1-0.2-0.1-0.3c-0.1-2-0.1-3.9-0.1-5.9c0-0.8,0.2-1.6,0.2-2.5c0-1.9,0-3.9,0-5.8
				c0-3.3,0.1-6.6,0.1-9.9c0-1.5,0-3.1,0-4.6c0-0.8,0.1-1.6,0.2-2.4c0.1-1.5-0.1-2.8,0-4.3c0-0.5,0-1,0-1.5c1.7,0.1,3.7,0,5.3,0
				c0.1,0.9,0.3,1.3,0.6,1.8C7.4,3.3,8.2,4.5,9,5.8c1.3,2,2.5,4.1,3.8,6.1c1.5,2.4,3,4.9,4.6,7.3c0.1,0.2,0.3,0.4,0.6,0.7
				c0.4-0.5,0.8-0.9,1.1-1.4c0.7-1.1,1.4-2.2,2.1-3.3c1-1.6,2-3.2,2.9-4.9c0.7-1.3,1.5-2.5,2.2-3.8c1-1.7,2-3.5,3-5.2
				c0.2-0.4,0.4-0.7,0.7-1C30.2,0,30.5,0,30.9,0.1c0.1,0,0.2,0,0.3,0C31.8,0,32.4,0,33.1,0c0.1,0,0.2,0.1,0.3,0.2
				c0.3,0.9,0.6,1.8,0.8,2.7c0.3,0.9,0.6,1.9,0.9,2.8c0.1,0.5,0.3,0.9,0.4,1.4c0.4,1.5,0.8,2.9,1.3,4.4c0.3,1.1,0.7,2.2,1,3.3
				c2.6-4.9,5.1-9.6,7.6-14.4c1.2,0,2.4,0,3.7,0c1,2.8,2,5.6,3,8.5c0,0,0.1,0,0.1,0c0.1-0.3,0.1-0.6,0.2-0.8
				c0.5-1.8,1.1-3.6,1.6-5.4c0.2-0.7,0.3-1.4,0.5-2C54.8,0.1,55,0,55.7,0.1c0.6,0,1.2,0.1,1.8,0.1c0.7,0,1.4,0,2.1-0.1
				c0.8,0,2.7,0,3.5,0c0.3,0,0.5,0.1,0.5,0.4c0.1,0.6,0.3,1.1,0.1,1.7c-0.1,0.6-0.1,1.3-0.1,2c0,2.4,0.1,4.7,0.1,7.1
				c0,1.4,0.1,2.8,0.1,4.2c0,1.1,0,3.9,0,4.2C64,21,64,22.4,64,23.8c0,1,0,2.1,0,3.1c0,1.3-0.1,2.7-0.2,4c0,2.3-0.1,4.5,0.1,6.8
				c0.1,1.1-0.6,1.8-1.1,2.6c-1.9,2.9-4.8,5.7-6.7,8.5c-1,1.5-2.1,2.8-3.1,4.3c-0.2,0.3-0.2,0.5-0.1,0.9c1,2.3,1.8,4.5,2.8,6.8
				c1.2,2.7,2.4,5.5,3.6,8.2c0.8,1.8,1.5,3.6,2.3,5.4c0.4,0.8,0.8,1.7,1.2,2.5c0.1,0.3,0.3,0.7,0.3,1.1c0,3,0,5.9,0,8.9
				c0,0.4,0,0.6-0.5,0.6c-1.1-0.1-2.1-0.2-3.2-0.3c-0.3,0-0.4-0.2-0.5-0.4c-0.3-0.9-0.6-1.8-1-2.6c-0.9-2.2-1.9-4.3-2.8-6.5
				c-1.2-2.7-2.4-5.3-3.5-8c-0.7-1.7-1.4-3.3-2.1-5c-0.5-1.2-1-2.4-1.5-3.6c-0.7-1.5-1.3-3-2-4.5c-0.7-1.7-1.5-3.4-2.2-5.1
				c-0.3-0.8-0.7-1.6-1.1-2.4c-0.2-0.5-0.2-0.8,0.2-1.2c1.2-1.2,2.4-2.4,3.6-3.6c0.9-1,1.8-2,2.7-3c1.4-1.5,2.8-3,4.2-4.5
				c0.9-1,2-1.9,2.9-2.9c1.1-1.2,2.2-2.4,3.3-3.6c0.1-0.1,0.1-0.2,0.1-0.3c0-0.7,0.1-1.5,0.1-2.2c0-0.8,0.1-1.5,0.1-2.3
				C59.8,24,59.8,22.8,59.8,21.6z"/>
		</g>
	</g>
</g>
</svg>
